<?xml version="1.0" encoding="utf-8"?>
<!-- Generator: Adobe Illustrator 14.0.0, SVG Export Plug-In . SVG Version: 6.00 Build 43363)  -->
<!DOCTYPE svg PUBLIC "-//W3C//DTD SVG 1.1//EN" "http://www.w3.org/Graphics/SVG/1.1/DTD/svg11.dtd">
<svg version="1.1" id="Layer_1" xmlns="http://www.w3.org/2000/svg" xmlns:xlink="http://www.w3.org/1999/xlink" x="0px" y="0px"
	 width="75.757px" height="48.484px" viewBox="0 0 75.757 48.484" enable-background="new 0 0 75.757 48.484" xml:space="preserve">
<path fill="#FFFFFF" d="M64.741,15.147c0.725-0.758,1.173-1.783,1.173-2.915c0-2.33-1.889-4.219-4.219-4.219
	c-1.204,0-2.287,0.507-3.056,1.316l-0.002-0.002L37.724,31.574L17.01,8.888l-0.001,0.001c-0.767-0.79-1.838-1.283-3.026-1.283
	c-2.33,0-4.219,1.889-4.219,4.219c0,1.141,0.455,2.175,1.191,2.934l-0.002,0.002l23.678,24.405c0.022,0.022,0.043,0.045,0.065,0.067
	l0.026,0.027h0.003c0.759,0.734,1.791,1.187,2.93,1.187c1.2,0,2.28-0.503,3.048-1.307l23.938-23.891
	c0.023-0.022,0.045-0.045,0.068-0.068l0.032-0.032L64.741,15.147z"/>
</svg>
