<?xml version="1.0" encoding="utf-8"?>
<!-- Generator: Adobe Illustrator 14.0.0, SVG Export Plug-In . SVG Version: 6.00 Build 43363)  -->
<!DOCTYPE svg PUBLIC "-//W3C//DTD SVG 1.1//EN" "http://www.w3.org/Graphics/SVG/1.1/DTD/svg11.dtd">
<svg version="1.1" id="Layer_2" xmlns="http://www.w3.org/2000/svg" xmlns:xlink="http://www.w3.org/1999/xlink" x="0px" y="0px"
	 width="42.243px" height="42.07px" viewBox="0 0 42.243 42.07" enable-background="new 0 0 42.243 42.07" xml:space="preserve">
<g>
	<path fill="#FF0000" d="M10.829,0.769h16.234c0,0,15.18,0.247,15.18,20.427c0,20.179-12.822,20.776-15.012,20.776
		c-2.188,0-16.401,0.099-16.401,0.099l-0.101-5.862l29.426-14.614L10.829,7.279V0.769z"/>
	<path fill="#FF0000" d="M29.62,18.213c0,0,0.99,1.591,0.99,2.983c0,1.39-1.094,3.678-1.094,3.678l6.76-3.282L29.62,18.213z"/>
	<polygon fill="#FF0000" points="7.448,7.378 15.402,11.354 10.928,14.535 17.291,17.915 10.729,21.494 17.19,25.272 11.029,28.849 
		15.6,31.931 6.653,36.307 1.185,36.307 1.086,7.378 	"/>
</g>
</svg>
